<svg width="348" height="141" viewBox="0 0 348 141" fill="none" xmlns="http://www.w3.org/2000/svg">
<path d="M3.17703 88.9018C1.52867 82.8907 0.689453 76.6474 0.689453 70.359C0.689453 41.653 18.6941 15.4053 45.495 5.05469L49.0089 14.1612C25.9394 23.0728 10.4448 45.6554 10.4448 70.359C10.4448 75.778 11.164 81.1444 12.5801 86.316L3.17703 88.9018Z" fill="#69D3A7"/>
<path d="M124.339 42.6275C113.909 22.5783 93.3799 10.1215 70.7749 10.1215C62.7653 10.1215 54.9806 11.6655 47.6528 14.701L43.9141 5.68444C52.4331 2.15427 61.4691 0.355469 70.7749 0.355469C97.0363 0.355469 120.878 14.8209 132.993 38.1155L124.339 42.6275Z" fill="url(#paint0_linear_5876_56500)"/>
<path d="M49.8486 55.9172C55.5055 55.9172 60.1134 58.9377 62.481 64.2067L62.6683 64.6189L72.1689 61.3886L71.9665 60.9014C68.2877 51.9298 59.8137 46.3535 49.8486 46.3535C42.8431 46.3535 37.1486 48.602 32.4433 53.219C27.768 57.8059 25.4004 63.5771 25.4004 70.3751C25.4004 77.1132 27.768 82.8544 32.4433 87.4414C37.1486 92.0583 42.8431 94.3068 49.8486 94.3068C59.8137 94.3068 68.2877 88.7305 71.9665 79.7664L72.1689 79.2792L62.6533 76.0414L62.4735 76.4686C60.3531 81.6477 55.6329 84.7431 49.8486 84.7431C45.9075 84.7431 42.5808 83.3641 39.9434 80.6509C37.276 77.9002 35.9274 74.4449 35.9274 70.3826C35.9274 66.2903 37.2461 62.9026 39.9434 60.0245C42.5733 57.2963 45.9075 55.9172 49.8486 55.9172Z" fill="#1B1E2E"/>
<path d="M166.92 53.2265C162.537 48.6695 157.067 46.3535 150.653 46.3535C144.285 46.3535 139.04 48.6245 135.054 53.0991V47.2379H124.789V111.103H135.054V87.5613C139.04 92.0358 144.277 94.3068 150.653 94.3068C157.067 94.3068 162.544 91.9908 166.927 87.4264C171.243 82.8394 173.423 77.1057 173.423 70.3751C173.416 63.5771 171.235 57.8134 166.92 53.2265ZM158.873 80.6358C156.243 83.3566 152.909 84.7281 148.975 84.7281C144.982 84.7281 141.745 83.3865 139.07 80.6358C136.403 77.8852 135.054 74.43 135.054 70.3677C135.054 66.1854 136.365 62.7976 139.07 60.0095C141.737 57.2513 144.974 55.9172 148.975 55.9172C152.916 55.9172 156.243 57.2963 158.873 60.0095C161.518 62.7377 162.799 66.1255 162.799 70.3677C162.799 74.5499 161.51 77.9077 158.873 80.6358Z" fill="#1B1E2E"/>
<path d="M190.131 52.7393V47.238H179.866V93.4149H190.131V67.3622C190.131 63.1874 191.809 59.9945 195.121 57.8734C198.41 55.7673 202.359 55.3776 207.192 56.6967L207.813 56.8691V46.9906L207.431 46.9007C200.943 45.3492 194.432 47.5827 190.131 52.7393Z" fill="#1B1E2E"/>
<path d="M234.442 46.3535C227.677 46.3535 221.937 48.662 217.382 53.219C212.766 57.8359 210.429 63.6071 210.429 70.3751C210.429 77.1132 212.796 82.8544 217.472 87.4414C222.177 92.0583 227.871 94.3068 234.877 94.3068C244.37 94.3068 252.529 89.48 256.71 81.3929L256.95 80.9282L248.266 77.0757L248.056 77.4879C245.539 82.3597 240.706 85.2678 235.147 85.2678C227.924 85.2678 222.394 80.8532 220.896 73.9653H258.134L258.179 73.5231C258.988 66.073 257.07 59.6122 252.492 54.3133C247.936 49.0292 241.86 46.3535 234.442 46.3535ZM221.203 65.7207C223.024 59.4174 228.164 55.385 234.442 55.385C240.893 55.385 246.033 59.4174 247.697 65.7207H221.203Z" fill="#1B1E2E"/>
<path d="M285.601 65.9677C280.005 64.9184 275.172 64.004 275.172 60.1066C275.172 57.0112 278.461 54.8526 283.166 54.8526C288.359 54.8526 291.206 57.0861 291.873 61.6806L291.948 62.1977L302.212 60.0466L302.138 59.582C300.759 51.4199 293.491 46.3457 283.174 46.3457C277.997 46.3457 273.613 47.6873 270.152 50.3331C266.615 52.9638 264.825 56.3966 264.825 60.5488C264.825 66.5598 268.631 71.0719 275.022 72.6159C276.678 73.0056 278.431 73.3204 280.124 73.6352C286.486 74.7969 292.495 75.8987 292.495 80.1858C292.495 83.4911 288.658 85.7921 283.174 85.7921C277.592 85.7921 274.513 83.5586 273.756 78.9566L273.673 78.447L263.416 80.5981L263.498 81.0703C264.989 89.3523 272.34 94.299 283.166 94.299C288.666 94.299 293.379 92.9274 297.155 90.2292C300.931 87.561 302.842 84.1207 302.842 80.006C302.842 69.2131 293.289 67.4143 285.601 65.9677Z" fill="#1B1E2E"/>
<path d="M330.07 65.9677C324.473 64.9184 319.641 64.004 319.641 60.1066C319.641 57.0112 322.93 54.8526 327.635 54.8526C332.828 54.8526 335.675 57.0861 336.342 61.6806L336.416 62.1977L346.681 60.0466L346.606 59.582C345.228 51.4199 337.96 46.3457 327.643 46.3457C322.465 46.3457 318.082 47.6873 314.621 50.3331C311.084 52.9638 309.293 56.3966 309.293 60.5488C309.293 66.5598 313.1 71.0719 319.491 72.6159C321.147 73.0056 322.9 73.3204 324.593 73.6352C330.954 74.7969 336.963 75.8987 336.963 80.1858C336.963 83.4911 333.127 85.7921 327.643 85.7921C322.061 85.7921 318.981 83.5586 318.225 78.9566L318.142 78.447L307.885 80.5981L307.967 81.0703C309.458 89.3523 316.808 94.299 327.635 94.299C333.135 94.299 337.848 92.9274 341.624 90.2292C345.4 87.561 347.311 84.1207 347.311 80.006C347.311 69.2131 337.758 67.4143 330.07 65.9677Z" fill="#1B1E2E"/>
<path d="M109.354 47.2363L95.815 81.5411L82.186 47.2363H71.0371L90.1506 94.0579L76.5516 127.081L86.2994 129.022L119.889 47.2363H109.354Z" fill="#1B1E2E"/>
<path d="M78.2961 122.825L75.9209 128.582C75.4489 129.721 74.37 130.493 73.1562 130.545C72.3545 130.575 71.5453 130.598 70.7286 130.598C42.7739 130.583 18.041 110.848 11.9121 83.6562L2.39648 85.8073C5.83557 101.06 14.467 114.903 26.7024 124.797C39.0801 134.802 54.6721 140.326 70.6237 140.356C70.6462 140.356 70.766 140.356 70.766 140.356C71.7026 140.356 72.6317 140.334 73.5607 140.296C78.5658 140.086 83.0389 136.946 84.9495 132.292L88.0514 124.767L78.2961 122.825Z" fill="url(#paint1_linear_5876_56500)"/>
<defs>
<linearGradient id="paint0_linear_5876_56500" x1="63.4821" y1="-4.16367" x2="116.759" y2="52.7037" gradientUnits="userSpaceOnUse">
<stop offset="0.0939" stop-color="#58D09E"/>
<stop offset="0.9883" stop-color="#58D09E" stop-opacity="0"/>
</linearGradient>
<linearGradient id="paint1_linear_5876_56500" x1="-0.057103" y1="102.211" x2="101.6" y2="129.232" gradientUnits="userSpaceOnUse">
<stop offset="0.0774" stop-color="#58D09E"/>
<stop offset="0.7617" stop-color="#1B1E2E"/>
</linearGradient>
</defs>
</svg>
